<?xml version="1.0" standalone="no"?>
<!DOCTYPE svg PUBLIC "-//W3C//DTD SVG 20010904//EN"
 "http://www.w3.org/TR/2001/REC-SVG-20010904/DTD/svg10.dtd">
<svg version="1.0" xmlns="http://www.w3.org/2000/svg"
 width="300.000000pt" height="180.000000pt" viewBox="0 0 300.000000 180.000000"
 preserveAspectRatio="xMidYMid meet">
<metadata>
Created by potrace 1.10, written by Peter Selinger 2001-2011
</metadata>
<g transform="translate(0.000000,180.000000) scale(0.100000,-0.100000)"
fill="#000000" stroke="none">
<path d="M606 1549 c-368 -126 -473 -587 -196 -859 36 -36 77 -72 90 -81 l23
-15 -39 -36 c-21 -19 -108 -97 -192 -172 -153 -139 -171 -163 -140 -194 9 -9
334 -12 1399 -12 1255 0 1387 1 1393 16 12 31 5 48 -41 98 -72 78 -377 400
-473 499 l-86 88 -144 -36 -145 -36 -290 296 c-159 162 -294 296 -298 295 -18
0 -56 -26 -125 -87 -40 -34 -76 -63 -80 -63 -4 0 -19 24 -34 53 -56 105 -170
201 -288 243 -93 32 -245 34 -334 3z m279 -85 c117 -30 216 -108 266 -209 17
-35 29 -70 27 -78 -3 -13 -454 -421 -535 -484 l-31 -24 -43 22 c-148 75 -234
247 -210 421 35 254 278 417 526 352z m698 -302 c64 -64 117 -124 117 -132 0
-14 -138 -160 -151 -160 -4 0 -38 39 -75 88 -92 118 -89 117 -150 76 l-38 -26
-23 28 c-13 16 -23 35 -23 41 0 7 21 32 47 55 26 24 72 66 102 95 31 29 61 53
66 53 6 0 63 -53 128 -118z m-380 -222 c54 -68 77 -75 125 -35 17 14 34 25 38
25 5 0 34 -35 64 -76 72 -99 95 -124 117 -124 9 0 63 47 119 105 56 58 107
105 113 105 6 0 63 -54 127 -120 77 -79 124 -120 138 -120 11 0 73 13 136 30
63 16 122 30 130 30 20 0 469 -472 470 -494 0 -6 -317 -7 -797 -3 -438 4 -989
7 -1225 7 -374 0 -428 2 -428 15 0 8 3 15 8 15 4 0 25 17 47 38 22 20 94 84
160 142 236 208 282 249 435 383 85 75 160 137 166 137 6 0 32 -27 57 -60z"/>
</g>
</svg>
