<?xml version="1.0" standalone="no"?>
<!DOCTYPE svg PUBLIC "-//W3C//DTD SVG 20010904//EN"
 "http://www.w3.org/TR/2001/REC-SVG-20010904/DTD/svg10.dtd">
<svg version="1.0" xmlns="http://www.w3.org/2000/svg"
 width="300.000000pt" height="170.000000pt" viewBox="0 0 300.000000 170.000000"
 preserveAspectRatio="xMidYMid meet">
<metadata>
Created by potrace 1.10, written by Peter Selinger 2001-2011
</metadata>
<g transform="translate(0.000000,170.000000) scale(0.100000,-0.100000)"
fill="#000000" stroke="none">
<path d="M1202 1363 c-44 -21 -74 -66 -80 -119 -6 -53 11 -96 49 -128 l29 -24
-60 -52 c-33 -29 -57 -56 -54 -61 6 -11 821 -12 827 -1 3 4 -36 51 -87 104
l-91 98 -44 -12 -44 -11 -81 87 c-45 48 -85 86 -90 86 -6 0 -20 -10 -32 -21
l-23 -22 -27 32 c-51 61 -124 78 -192 44z m136 -33 c29 -18 62 -65 51 -73 -2
-2 -39 -34 -82 -71 -69 -62 -80 -68 -101 -58 -23 10 -56 67 -56 96 0 35 30 86
62 106 42 25 84 25 126 0z m189 -136 l-22 -24 -26 32 c-22 27 -29 30 -42 20
-12 -10 -16 -10 -20 2 -4 9 6 25 25 41 l31 26 38 -37 38 -37 -22 -23z m-95
-16 c10 10 18 7 40 -20 l27 -33 36 35 37 35 34 -39 c33 -38 34 -38 76 -28 l43
11 70 -69 c38 -38 67 -71 65 -72 -3 -2 -164 -1 -358 2 l-353 5 118 103 117
103 18 -23 c14 -19 19 -21 30 -10z"/>
<path d="M1642 854 c-25 -17 -29 -51 -8 -79 10 -14 26 -20 56 -20 30 0 46 6
56 20 45 61 -39 125 -104 79z m66 -41 c-4 -20 -18 -26 -37 -14 -18 12 -5 31
20 31 14 0 19 -6 17 -17z"/>
<path d="M302 725 c1 -100 15 -124 30 -51 17 80 61 126 123 126 l26 0 -3 -240
c-3 -262 -3 -260 -60 -260 -16 0 -28 -4 -28 -10 0 -6 55 -10 145 -10 90 0 145
4 145 10 0 6 -12 10 -27 10 -58 0 -58 -2 -61 260 l-3 240 26 0 c62 0 101 -40
124 -127 11 -42 31 -59 31 -28 0 13 4 14 20 5 18 -10 20 -21 20 -143 0 -158
10 -201 50 -222 40 -21 99 -19 138 5 41 25 43 46 2 25 -37 -19 -66 -12 -74 18
-3 12 -6 95 -6 183 l0 161 -77 -1 -78 -1 3 73 4 72 -236 0 -235 0 1 -95z m256
-178 l2 -227 -25 0 -25 0 0 223 c0 123 3 227 7 231 4 4 14 5 23 4 13 -3 15
-35 18 -231z m332 -73 c0 -150 -6 -178 -30 -135 -10 21 -14 283 -4 294 3 3 12
3 20 0 11 -4 14 -36 14 -159z"/>
<path d="M2320 790 c-8 -5 -32 -10 -52 -10 l-38 0 0 -56 0 -56 -35 6 c-22 4
-35 3 -35 -4 0 -5 16 -10 35 -10 l35 0 0 -160 c0 -170 6 -201 47 -219 48 -22
92 -14 130 24 20 20 31 39 27 46 -5 8 -13 3 -26 -14 -21 -28 -55 -36 -63 -14
-2 6 -6 85 -7 175 l-3 162 48 0 c26 0 47 5 47 11 0 6 -19 9 -47 7 l-46 -3 2
63 c1 34 1 62 -1 62 -2 0 -10 -5 -18 -10z m-19 -77 c8 -57 -3 -393 -12 -393
-5 0 -14 11 -19 25 -11 29 -15 351 -5 378 11 26 32 20 36 -10z"/>
<path d="M1945 681 c-65 -16 -95 -52 -95 -114 0 -27 13 -44 85 -112 70 -67 85
-85 85 -111 0 -39 -16 -54 -56 -54 -41 0 -81 45 -90 101 -11 67 -24 43 -24
-43 1 -75 2 -81 15 -64 14 19 16 19 50 3 67 -32 164 -15 199 34 9 13 16 43 16
67 0 48 -14 66 -128 160 -60 50 -68 81 -26 109 25 16 28 16 63 -3 27 -14 39
-30 49 -61 8 -24 18 -43 23 -43 5 0 9 33 9 73 -1 65 -2 70 -15 53 -13 -17 -19
-18 -52 -8 -62 18 -76 20 -108 13z m-16 -98 c10 -21 36 -51 57 -68 104 -80
129 -119 104 -165 -14 -25 -40 -15 -40 16 0 16 -24 47 -80 101 -78 75 -90 96
-74 137 9 22 11 21 33 -21z"/>
<path d="M1050 671 c-62 -6 -63 -7 -37 -19 l28 -12 -3 -155 c-2 -85 0 -155 3
-155 3 0 3 -14 1 -32 -4 -26 -2 -30 12 -25 10 4 47 7 82 7 36 0 64 4 64 10 0
6 -7 10 -15 10 -28 0 -35 39 -35 209 0 157 -1 171 -17 169 -10 -1 -47 -4 -83
-7z m65 -191 c0 -148 -1 -155 -20 -155 -19 0 -20 7 -22 140 -2 155 1 178 25
173 15 -3 17 -22 17 -158z"/>
<path d="M1290 671 c-61 -6 -63 -7 -37 -18 l27 -13 -2 -167 c-3 -166 -3 -168
-25 -171 -13 -2 -23 -8 -23 -13 0 -5 53 -9 120 -9 73 0 120 4 120 10 0 6 -11
10 -24 10 -48 0 -56 21 -56 150 0 65 4 130 10 144 12 32 46 66 65 66 14 0 13
-3 -1 -25 -32 -48 3 -95 61 -81 29 7 46 51 33 86 -12 32 -25 40 -71 40 -31 0
-45 -7 -68 -31 l-29 -31 0 31 c0 24 -4 31 -17 29 -10 -1 -47 -4 -83 -7z m67
-45 c4 -8 7 -80 5 -160 -3 -135 -4 -146 -22 -146 -24 0 -26 14 -22 183 2 109
6 137 17 137 8 0 18 -6 22 -14z"/>
<path d="M1590 668 c0 -4 9 -10 20 -13 28 -9 31 -31 28 -195 -3 -139 -4 -145
-25 -155 -43 -19 -23 -25 82 -25 58 0 105 4 105 9 0 5 -10 11 -22 13 -23 3
-23 5 -26 189 l-2 185 -80 0 c-44 -1 -80 -4 -80 -8z m115 -189 c0 -130 -2
-154 -15 -154 -12 0 -15 23 -18 135 -3 145 2 184 21 177 9 -3 12 -46 12 -158z"/>
<path d="M2615 668 c-11 -7 -49 -14 -84 -17 -38 -4 -66 -11 -69 -18 -2 -9 7
-13 27 -13 45 0 53 -30 49 -178 -3 -131 -8 -142 -55 -142 -13 0 -23 -4 -23
-10 0 -6 47 -10 120 -10 67 0 120 4 120 9 0 5 -10 11 -22 13 -23 3 -23 5 -26
191 -1 103 -6 187 -10 187 -4 0 -16 -6 -27 -12z m-7 -201 c2 -141 2 -147 -17
-147 -19 0 -20 8 -23 146 -2 80 -1 148 2 150 2 3 11 3 20 2 13 -3 15 -27 18
-151z"/>
</g>
</svg>
